#!OML:ASF I:\Actors\actors\Patient Classification 2\Patient 1\Session 1\actor1.ASF
:FULLY-SPECIFIED
:DEGREES
690
root -0.657974 18.742 5.59886 4.602 -0.399379 -0.821563
lowerback 12.2228 1.23005 -2.31278
upperback -2.81598 1.37703 1.03895
thorax -10.004 0.837153 2.14092
lowerneck -4.76509 -1.30483 0.414049
upperneck 45.7471 -1.78319 -0.751291
head 17.7995 -0.732345 -0.691563
rclavicle -3.76448e-015 -5.26779e-015
rhumerus -97.1126 13.5647 -100.8
rradius 77.6957
rwrist -13.4317
rhand 15.262 -33.8029
rfingers 7.12502
rthumb 40.0982 -58.9993
lclavicle -3.76448e-015 -5.26779e-015
lhumerus -90.7281 -21.1015 105.292
lradius 80.0184
lwrist 26.5606
lhand 27.9088 -10.3963
lfingers 7.12502
lthumb 51.8174 9.81715
rfemur 0 0 0
rtibia 0
rfoot 0 0
rtoes 0
lfemur -7.81441 -4.05146 -13.0425
ltibia 21.3203
lfoot -22.4854 15.4145
ltoes -55.5533
691
root -0.656529 18.7408 5.60541 4.58784 -0.454944 -0.833234
lowerback 12.2408 1.31708 -2.2054
upperback -2.95868 1.49759 0.906893
thorax -10.172 0.886895 1.91125
lowerneck -4.79533 -1.35463 0.663328
upperneck 45.466 -1.92313 -0.72085
head 17.6272 -0.745505 -0.739898
rclavicle 2.74136e-014 6.75868e-015
rhumerus -95.9371 12.904 -99.9611
rradius 76.189
rwrist -12.6073
rhand 12.7772 -33.5086
rfingers 7.12502
rthumb 37.7554 -59.374
lclavicle 2.74136e-014 6.75868e-015
lhumerus -89.4671 -21.0072 104.404
lradius 78.1701
lwrist 25.8141
lhand 23.8754 -11.4492
lfingers 7.12502
lthumb 48.1267 10.7043
rfemur 0 0 0
rtibia 0
rfoot 0 0
rtoes 0
lfemur -7.75838 -4.0878 -13.0464
ltibia 21.29
lfoot -22.5404 15.5413
ltoes -55.676
692
root -0.654805 18.74 5.6125 4.57697 -0.508396 -0.816231
lowerback 12.241 1.30151 -2.29173
upperback -3.12306 1.46821 0.962145
thorax -10.3573 0.884052 2.02497
lowerneck -4.75068 -1.29691 0.594061
upperneck 45.1882 -1.81005 -0.736191
head 17.4463 -0.716587 -0.71297
rclavicle 2.045e-014 1.68967e-015
rhumerus -94.8734 12.7115 -99.0463
rradius 74.7524
rwrist -11.9192
rhand 10.1474 -33.3974
rfingers 7.12502
rthumb 35.2661 -59.8909
lclavicle 2.045e-014 1.68967e-015
lhumerus -87.9336 -20.2048 103.247
lradius 76.8117
lwrist 25.205
lhand 20.9319 -10.1663
lfingers 7.12502
lthumb 45.4022 13.1731
rfemur 0 0 0
rtibia 0
rfoot 0 0
rtoes 0
lfemur -7.70355 -4.08294 -13.0817
ltibia 21.2754
lfoot -22.5736 15.6184
ltoes -55.7573
693
root -0.651614 18.7403 5.62137 4.60601 -0.557486 -0.778117
lowerback 12.1724 1.29709 -2.3524
upperback -3.29034 1.45827 1.00569
thorax -10.5055 0.888501 2.10854
lowerneck -4.78271 -1.25596 0.440974
upperneck 44.9489 -1.71836 -0.718571
head 17.312 -0.704818 -0.660277
rclavicle 2.48481e-015 -8.64713e-015
rhumerus -93.7763 12.4414 -98.0296
rradius 73.4661
rwrist -11.0911
rhand 7.50613 -33.4744
rfingers 7.12502
rthumb 32.7573 -60.5255
lclavicle 2.48481e-015 -8.64713e-015
lhumerus -86.3774 -19.4182 102.167
lradius 75.1758
lwrist 24.5312
lhand 18.1489 -10.1286
lfingers 7.12502
lthumb 42.807 14.1852
rfemur 0 0 0
rtibia 0
rfoot 0 0
rtoes 0
lfemur -7.68245 -4.06442 -13.1422
ltibia 21.2752
lfoot -22.6168 15.6009
ltoes -55.6753
694
root -0.648318 18.7398 5.63106 4.64998 -0.587128 -0.776215
lowerback 12.0652 1.45174 -2.15525
upperback -3.44725 1.67621 0.770614
thorax -10.6145 0.973392 1.6967
lowerneck -4.89894 -1.40836 0.812941
upperneck 44.6977 -2.05955 -0.644182
head 17.1828 -0.77429 -0.741662
rclavicle -5.17772e-015 -1.83876e-015
rhumerus -92.4541 11.3357 -97.0017
rradius 72.2212
rwrist -10.1211
rhand 5.19769 -33.587
rfingers 7.12502
rthumb 30.5585 -61.0717
lclavicle -5.17772e-015 -1.83876e-015
lhumerus -84.9819 -19.5853 101.229
lradius 73.3562
lwrist 24.1835
lhand 14.8665 -11.3859
lfingers 7.12502
lthumb 39.726 13.9222
rfemur 0 0 0
rtibia 0
rfoot 0 0
rtoes 0
lfemur -7.69269 -4.03516 -13.1572
ltibia 21.2891
lfoot -22.6618 15.5481
ltoes -55.599
695
root -0.645806 18.7382 5.63992 4.64594 -0.580415 -0.808552
lowerback 12.0056 1.56658 -1.95856
upperback -3.61207 1.84163 0.557208
thorax -10.7559 1.03343 1.31882
lowerneck -4.92585 -1.53239 1.3147
upperneck 44.3823 -2.3419 -0.672813
head 16.9899 -0.814362 -0.88277
rclavicle 1.48436e-014 1.05604e-016
rhumerus -91.1811 10.2991 -96.0373
rradius 71.0148
rwrist -9.43544
rhand 3.4416 -33.5306
rfingers 7.12502
rthumb 28.8825 -61.3145
lclavicle 1.48436e-014 1.05604e-016
lhumerus -83.573 -19.6621 100.321
lradius 71.2961
lwrist 23.7562
lhand 11.3874 -14.2425
lfingers 7.12502
lthumb 36.4411 11.9644
rfemur 0 0 0
rtibia 0
rfoot 0 0
rtoes 0
lfemur -7.68095 -3.99813 -13.1274
ltibia 21.312
lfoot -22.6748 15.5123
ltoes -55.6665
696
root -0.64311 18.7367 5.64789 4.58742 -0.57252 -0.841124
lowerback 12.0388 1.56784 -1.86228
upperback -3.82486 1.85344 0.509752
thorax -11.0088 1.03385 1.20704
lowerneck -4.83435 -1.52166 1.52008
upperneck 44.1118 -2.32538 -0.76573
head 16.8029 -0.790297 -0.954153
rclavicle 4.35618e-015 -1.04113e-014
rhumerus -90.1226 9.78685 -95.1013
rradius 69.9227
rwrist -9.46525
rhand 2.24884 -33.5705
rfingers 7.12502
rthumb 27.7425 -61.5436
lclavicle 4.35618e-015 -1.04113e-014
lhumerus -82.1524 -19.0429 99.3334
lradius 70.1572
lwrist 23.4472
lhand 9.26228 -13.3338
lfingers 7.12502
lthumb 34.4263 13.3544
rfemur 0 0 0
rtibia 0
rfoot 0 0
rtoes 0
lfemur -7.59611 -4.03399 -13.1059
ltibia 21.3334
lfoot -22.7299 15.5106
ltoes -55.6828
697
root -0.641033 18.7362 5.65359 4.55711 -0.547486 -0.856627
lowerback 12.3678 1.55153 -1.68248
upperback -4.24891 1.85008 0.455725
thorax -11.6742 1.0232 1.03432
lowerneck -4.55182 -1.49404 1.43607
upperneck 44.0035 -2.29252 -0.67215
head 16.674 -0.781558 -0.886009
rclavicle 1.20342e-014 3.57812e-015
rhumerus -89.391 9.2453 -94.1283
rradius 68.9406
rwrist -9.91381
rhand 1.26674 -33.7702
rfingers 7.12502
rthumb 26.8031 -61.8909
lclavicle 1.20342e-014 3.57812e-015
lhumerus -81.0605 -18.1661 98.3863
lradius 68.5162
lwrist 22.5945
lhand 7.074 -15.2566
lfingers 7.12502
lthumb 32.3461 11.8793
rfemur 0 0 0
rtibia 0
rfoot 0 0
rtoes 0
lfemur -7.54032 -4.0888 -13.0974
ltibia 21.3467
lfoot -22.7675 15.4837
ltoes -55.5968
698
root -0.639371 18.7365 5.6594 4.52515 -0.499561 -0.843898
lowerback 12.4075 1.5217 -1.68023
upperback -4.43554 1.81706 0.520294
thorax -11.9111 1.01289 1.10756
lowerneck -4.52707 -1.44804 1.18947
upperneck 43.751 -2.20794 -0.565946
head 16.5299 -0.776572 -0.777378
rclavicle -2.27358e-014 1.93815e-015
rhumerus -88.2521 8.88976 -92.9773
rradius 67.9911
rwrist -10.1993
rhand 0.132617 -34.0526
rfingers 7.12502
rthumb 25.7174 -62.335
lclavicle -2.27358e-014 1.93815e-015
lhumerus -79.4927 -17.1477 97.5689
lradius 67.6098
lwrist 22.6493
lhand 5.08226 -13.4609
lfingers 7.12502
lthumb 30.4484 14.0443
rfemur 0 0 0
rtibia 0
rfoot 0 0
rtoes 0
lfemur -7.49777 -4.11547 -13.1156
ltibia 21.3532
lfoot -22.7524 15.4503
ltoes -55.5855
699
root -0.636822 18.7363 5.66645 4.43973 -0.463224 -0.809034
lowerback 12.3328 1.46226 -1.79479
upperback -4.52249 1.73391 0.655826
thorax -11.9709 0.989966 1.33973
lowerneck -4.46247 -1.35731 0.908773
upperneck 43.366 -2.02533 -0.514857
head 16.3025 -0.744541 -0.672052
rclavicle 4.99097e-015 7.1811e-015
rhumerus -86.9479 8.77665 -91.9237
rradius 66.9693
rwrist -9.90777
rhand -1.09037 -34.3483
rfingers 7.12502
rthumb 24.5456 -62.795
lclavicle 4.99097e-015 7.1811e-015
lhumerus -77.8217 -16.0619 96.9724
lradius 66.3974
lwrist 22.8522
lhand 2.56454 -13.3153
lfingers 7.12502
lthumb 28.0444 14.6088
rfemur 0 0 0
rtibia 0
rfoot 0 0
rtoes 0
lfemur -7.38735 -4.18039 -13.1711
ltibia 21.3508
lfoot -22.7875 15.4494
ltoes -55.5423
700
root -0.633414 18.7347 5.67252 4.35752 -0.439558 -0.775895
lowerback 12.1626 1.434 -1.90269
upperback -4.54199 1.69152 0.75516
thorax -11.8961 0.982886 1.52186
lowerneck -4.54162 -1.29432 0.763093
upperneck 42.9637 -1.89672 -0.512112
head 16.1 -0.717643 -0.622549
rclavicle -5.71991e-015 1.64991e-014
rhumerus -85.4788 8.57586 -90.943
rradius 65.8352
rwrist -9.03658
rhand -1.91211 -34.442
rfingers 7.12502
rthumb 23.7577 -62.9933
lclavicle -5.71991e-015 1.64991e-014
lhumerus -76.0455 -15.2468 96.5037
lradius 65.0429
lwrist 22.7708
lhand 0.30972 -14.0758
lfingers 7.12502
lthumb 25.887 14.182
rfemur 0 0 0
rtibia 0
rfoot 0 0
rtoes 0
lfemur -7.27449 -4.17504 -13.2259
ltibia 21.3384
lfoot -22.8152 15.3935
ltoes -55.4754
701
root -0.630092 18.7322 5.67725 4.28135 -0.403081 -0.767535
lowerback 11.7707 1.38858 -2.08933
upperback -4.37936 1.62688 0.9446
thorax -11.4863 0.970731 1.85642
lowerneck -4.9323 -1.21262 0.596992
upperneck 42.4904 -1.68456 -0.648255
head 15.935 -0.675295 -0.6215
rclavicle -2.24099e-014 1.98785e-015
rhumerus -83.6911 8.51794 -89.8926
rradius 64.6626
rwrist -8.12393
rhand -2.28175 -34.4336
rfingers 7.12502
rthumb 23.4031 -63.0306
lclavicle -2.24099e-014 1.98785e-015
lhumerus -73.9056 -14.39 96.0839
lradius 63.7144
lwrist 22.2372
lhand -1.18802 -15.0074
lfingers 7.12502
lthumb 24.452 13.4519
rfemur 0 0 0
rtibia 0
rfoot 0 0
rtoes 0
lfemur -7.17456 -4.10961 -13.2461
ltibia 21.3215
lfoot -22.7678 15.304
ltoes -55.4662
702
root -0.627073 18.7308 5.68117 4.20868 -0.354086 -0.766658
lowerback 11.9741 1.3327 -1.95167
upperback -4.67794 1.56958 0.9274
thorax -11.939 0.939165 1.76727
lowerneck -4.62158 -1.13593 0.542786
upperneck 42.1523 -1.53981 -0.672978
head 15.6794 -0.629883 -0.595353
rclavicle -1.58057e-014 -1.08338e-014
rhumerus -82.6491 8.151 -89.1512
rradius 63.472
rwrist -7.3694
rhand -2.47373 -34.3539
rfingers 7.12502
rthumb 23.219 -62.9742
lclavicle -1.58057e-014 -1.08338e-014
lhumerus -72.72 -13.6906 95.6592
lradius 62.6229
lwrist 21.3568
lhand -2.03695 -15.8041
lfingers 7.12502
lthumb 23.638 12.7628
rfemur 0 0 0
rtibia 0
rfoot 0 0
rtoes 0
lfemur -7.0878 -4.0927 -13.2543
ltibia 21.3063
lfoot -22.7162 15.2474
ltoes -55.4641
703
root -0.62436 18.7304 5.685 4.16013 -0.336255 -0.753334
lowerback 11.5483 1.24318 -2.1542
upperback -4.57785 1.43678 1.0536
thorax -11.5723 0.893471 2.05525
lowerneck -4.73349 -0.992887 0.587194
upperneck 41.6656 -1.29406 -0.774862
head 15.4473 -0.536281 -0.609935
rclavicle -3.12931e-016 -7.25564e-015
rhumerus -80.8977 8.05426 -88.3366
rradius 62.16
rwrist -6.76479
rhand -2.64839 -34.3351
rfingers 7.12502
rthumb 23.0514 -62.9764
lclavicle -3.12931e-016 -7.25564e-015
lhumerus -70.8377 -12.7445 95.0827
lradius 61.5173
lwrist 20.4968
lhand -2.54845 -15.8057
lfingers 7.12502
lthumb 23.1473 12.8236
rfemur 0 0 0
rtibia 0
rfoot 0 0
rtoes 0
lfemur -7.02648 -4.10104 -13.2767
ltibia 21.2963
lfoot -22.7148 15.2374
ltoes -55.4868
704
root -0.62285 18.7298 5.68746 4.13686 -0.334901 -0.727336
lowerback 11.3627 1.22441 -2.18155
upperback -4.66599 1.40562 1.00646
thorax -11.5579 0.879473 2.02801
lowerneck -4.64621 -0.900426 0.75458
upperneck 41.2135 -1.215 -0.696979
head 15.191 -0.470679 -0.590832
rclavicle 1.11055e-014 1.05356e-014
rhumerus -79.407 7.55815 -87.6647
rradius 60.7222
rwrist -5.9815
rhand -2.992 -34.5674
rfingers 7.12502
rthumb 22.7216 -63.2496
lclavicle 1.11055e-014 1.05356e-014
lhumerus -69.2608 -12.0912 94.5034
lradius 60.391
lwrist 19.9165
lhand -3.13273 -15.3289
lfingers 7.12502
lthumb 22.5866 13.3698
rfemur 0 0 0
rtibia 0
rfoot 0 0
rtoes 0
lfemur -6.99475 -4.06192 -13.3087
ltibia 21.2877
lfoot -22.7059 15.2332
ltoes -55.5315
